# AST/ASF file generated using VICON BodyLanguage
# -----------------------------------------------
:version 1.10
:name VICON
:units
  mass 1.0
  length 0.45
  angle deg
:documentation
   .ast/.asf automatically generated from VICON data using
   VICON BodyBuilder and BodyLanguage model FoxedUp or BRILLIANT.MOD
:root
   order TX TY TZ RX RY RZ
   axis XYZ
   position 0 0 0  
   orientation 0 0 0 
:bonedata
  begin
     id 1 
     name lhipjoint
     direction 0.588788 -0.725889 0.355548 
     length 2.37778 
     axis 0 0 0  XYZ
  end
  begin
     id 2 
     name lfemur
     direction 0.34202 -0.939693 0  
     length 6.86393  
     axis 0 0 20  XYZ
    dof rx ry rz
    limits (-160.0 20.0)
           (-70.0 70.0)
           (-60.0 70.0)
  end
  begin
     id 3 
     name ltibia
     direction 0.34202 -0.939693 0   
     length 7.32851   
     axis 0 0 20   XYZ
    dof rx
    limits (-10.0 170.0)
  end
  begin
     id 4 
     name lfoot
     direction 0.0626533 -0.172138 0.983078   
     length 1.98929   
     axis -90 7.62852e-016 20   XYZ
    dof rx rz
    limits (-45.0 90.0)
           (-70.0 20.0)
  end
  begin
     id 5 
     name ltoes
     direction 1.53647e-011 -4.21734e-011 1   
     length 1.00479   
     axis -90 7.62852e-016 20   XYZ
    dof rx
    limits (-90.0 20.0)
  end
  begin
     id 6 
     name rhipjoint
     direction -0.59141 -0.724168 0.354705   
     length 2.38343  
     axis 0 0 0  XYZ 
  end
  begin
     id 7 
     name rfemur
     direction -0.34202 -0.939693 0   
     length 6.95589   
     axis 0 0 -20   XYZ
    dof rx ry rz
    limits (-160.0 20.0)
           (-70.0 70.0)
           (-70.0 60.0)
  end
  begin
     id 8 
     name rtibia
     direction -0.34202 -0.939693 0   
     length 7.32327   
     axis 0 0 -20   XYZ
    dof rx
    limits (-10.0 170.0)
 end
 begin
     id 9 
     name rfoot
     direction -0.0660461 -0.18146 0.981178   
     length 1.85272  
     axis -90 -7.62852e-016 -20   XYZ
    dof rx rz
    limits (-45.0 90.0)
           (-20.0 70.0)
  end
  begin
     id 10 
     name rtoes
     direction -1.53586e-011 -4.21988e-011 1   
     length 0.93746   
     axis -90 -7.62852e-016 -20   XYZ
    dof rx
    limits (-90.0 20.0)
  end
  begin
     id 11 
     name lowerback
     direction -0.0107982 0.991059 0.13299   
     length 1.98691   
     axis 0 0 0   XYZ
    dof rx ry rz
    limits (-20.0 45.0)
           (-30.0 30.0)
           (-30.0 30.0)
  end
  begin
     id 12 
     name upperback
     direction 0.0076296 0.999916 0.0104576   
     length 1.99501   
     axis 0 0 0   XYZ
    dof rx ry rz
    limits (-20.0 45.0)
           (-30.0 30.0)
           (-30.0 30.0)
  end
  begin
     id 13 
     name thorax
     direction 0.01176 0.998615 -0.0512909   
     length 2.03144   
     axis 0 0 0   XYZ
    dof rx ry rz
    limits (-20.0 45.0)
           (-30.0 30.0)
           (-30.0 30.0)
  end
  begin
     id 14 
     name lowerneck
     direction -0.0171909 0.999644 0.0204011   
     length 1.71818   
     axis 0 0 0   XYZ
    dof rx ry rz
    limits (-20.0 45.0)
           (-30.0 30.0)
           (-30.0 30.0)
  end
  begin
     id 15 
     name upperneck
     direction 0.0250902 0.997482 -0.0663316   
     length 1.66199   
     axis 0 0 0   XYZ
    dof rx ry rz
    limits (-20.0 45.0)
           (-30.0 30.0)
           (-30.0 30.0)
  end
  begin
     id 16
     name head
     direction 0.00881535 0.99956 -0.0283365  
     length 1.81545  
     axis 0 0 0   XYZ
    dof rx ry rz
    limits (-20.0 45.0)
           (-30.0 30.0)
           (-30.0 30.0)
  end
  begin
     id 17 
     name lclavicle
     direction 0.840411 0.486876 -0.238035  
     length 3.30409  
     axis 0 0 0   XYZ
    dof ry rz
    limits (-20.0 10.0)
           (0.0 20.0)
  end
  begin
     id 18 
     name lhumerus
     direction 1 -4.48977e-011 -5.16239e-027   
     length 4.62672   
     axis 180 -30 -90   XYZ
    dof rx ry rz
    limits (-60.0 90.0)
           (-90.0 90.0)
           (-90.0 90.0)
  end
  begin
     id 19
     name lradius
     direction 1 -4.48977e-011 -8.71171e-027   
     length 3.11018   
     axis 180 -30 -90   XYZ
    dof rx
    limits (-10.0 170.0)
  end
  begin
     id 20
     name lwrist
     direction 1 -4.48912e-011 -1.03764e-026   
     length 1.55509   
     axis 9.09556e-015 90 90   XYZ
    dof ry
    limits (-180.0 0.0)
 end
  begin
     id 21 
     name lhand
     direction 1 -4.49072e-011 -2.07528e-026   
     length 0.743834   
     axis 1.3242e-014 90 90   XYZ
    dof rx rz
    limits (-90.0 90.0)
           (-45.0 45.0)
  end
  begin
     id 22 
     name lfingers
     direction 1 -4.48909e-011 -4.15056e-026   
     length 0.599698   
     axis 2.64841e-014 90 90   XYZ
    dof rx
    limits (0.0 90.0)
  end
  begin
     id 23
     name lthumb
     direction 0.707107 -6.35013e-011 0.707107   
     length 0.86105   
     axis -90 45 2.85299e-015   XYZ
    dof rx rz
    limits (-45.0 45.0)
           (-45.0 45.0)
  end
  begin
     id 24 
     name rclavicle
     direction -0.835208 0.500237 -0.228452   
     length 3.2716  
     axis 0 0 0   XYZ 
    dof ry rz
    limits (-10.0 20.0)
           (-20.0 0.0)
  end
  begin
     id 25 
     name rhumerus
     direction -1 -4.48978e-011 -5.1953e-028  
     length 4.55919   
     axis 180 30 90   XYZ
    dof rx ry rz
    limits (-90.0 60.0)
           (-90.0 90.0)
           (-90.0 90.0)
  end
  begin
     id 26 
     name rradius
     direction -1 -4.48961e-011 -5.99546e-027   
     length 3.22748   
     axis 180 30 90   XYZ
    dof rx
    limits (-10.0 170.0)
  end
  begin
     id 27 
     name rwrist
     direction -1 -4.48986e-011 -1.03764e-026   
     length 1.61374   
     axis 9.09556e-015 -90 -90   XYZ
    dof ry
    limits (-180.0 0.0)
  end
  begin
     id 28
     name rhand
     direction -1 -4.4899e-011 -2.07528e-026   
     length 0.700882   
     axis 1.3242e-014 -90 -90   XYZ
    dof rx rz
    limits (-90.0 90.0)
           (-45.0 45.0)
  end
  begin
     id 29
     name rfingers
     direction -1 -4.48991e-011 -4.15056e-026   
     length 0.565069   
     axis 2.64841e-014 -90 -90   XYZ
    dof rx
    limits (0.0 90.0)
  end
  begin
     id 30
     name rthumb
     direction -0.707107 -6.34804e-011 0.707107   
     length 0.811329   
     axis -90 -45 -2.85299e-015   XYZ
    dof rx rz
    limits (-45.0 45.0)
           (-45.0 45.0)
  end
:hierarchy
  begin
    root lhipjoint rhipjoint lowerback
    lhipjoint lfemur
    lfemur ltibia
    ltibia lfoot
    lfoot ltoes
    rhipjoint rfemur
    rfemur rtibia
    rtibia rfoot
    rfoot rtoes
    lowerback upperback
    upperback thorax
    thorax lowerneck lclavicle rclavicle
    lowerneck upperneck
    upperneck head
    lclavicle lhumerus
    lhumerus lradius
    lradius lwrist
    lwrist lhand lthumb
    lhand lfingers
    rclavicle rhumerus
    rhumerus rradius
    rradius rwrist
    rwrist rhand rthumb
    rhand rfingers
  end

#!OML:ASF F:\VICON\USERDATA\INSTALL\SteveWalk\SteveWalk.ASF
:FULLY-SPECIFIED
:DEGREES
266
root 0.398092 16.3548 16.6157 17.3332 1.93262 1.49407
lowerback -14.3938 -1.37733 -3.71383
upperback -5.91473 -1.32187 0.043692
thorax 1.90265 -0.609156 1.93303
lowerneck -4.83555 -0.878436 -1.71101
upperneck 9.3484 -1.21694 1.87871
head 3.93585 -0.579291 0.86714
rclavicle 3.43214e-015 2.38542e-015
rhumerus -51.564 -24.6134 -66.5485
rradius 15.6316
rwrist 9.53503
rhand -14.7737 -35.3288
rfingers 7.12502
rthumb 11.383 295
lclavicle 3.43214e-015 2.38542e-015
lhumerus -28.428 4.85462 82.3384
lradius 26.0667
lwrist -2.78777
lhand -19.9028 -15.6527
lfingers 7.12502
lthumb 6.43369 14.2296
rfemur -47.5895 -5.49745 22.1506
rtibia 58.1871
rfoot -12.1717 -3.02948
rtoes -11.1612
lfemur -24.2004 6.0823 -25.7689
ltibia 33.7849
lfoot -23.95 -8.22275
ltoes -1.03378
267
root 0.393412 16.3478 16.831 17.4328 2.31816 1.5761
lowerback -14.3786 -1.44357 -3.7635
upperback -5.94283 -1.40461 0.0967413
thorax 1.87209 -0.647921 2.00386
lowerneck -4.83482 -0.974552 -1.70832
upperneck 9.26053 -1.33282 1.75042
head 3.90535 -0.642194 0.817784
rclavicle -1.2657e-015 -9.64106e-015
rhumerus -54.8476 -28.7168 -60.2392
rradius 14.0284
rwrist 15.7536
rhand -14.6665 -34.9961
rfingers 7.12502
rthumb 11.4864 295.339
lclavicle -1.2657e-015 -9.64106e-015
lhumerus -27.2662 2.73025 83.1497
lradius 27.8581
lwrist -0.562891
lhand -19.8141 -15.2259
lfingers 7.12502
lthumb 6.51931 14.6538
rfemur -48.2076 -5.40621 22.1428
rtibia 55.3221
rfoot -12.0961 -3.32505
rtoes -8.29837
lfemur -23.0288 6.16195 -25.7085
ltibia 33.0805
lfoot -24.0144 -8.84631
ltoes 1.03645
268
root 0.3876 16.3518 17.0386 17.5373 2.72789 1.48466
lowerback -14.2277 -1.49659 -3.66263
upperback -6.04413 -1.49888 0.208435
thorax 1.6918 -0.690397 2.0527
lowerneck -4.69106 -1.00882 -1.54759
upperneck 9.15435 -1.36607 1.46692
head 3.8346 -0.666014 0.693229
rclavicle 2.02667e-015 5.91384e-015
rhumerus -59.3418 -32.6951 -52.4348
rradius 12.6753
rwrist 22.9793
rhand -14.5329 -34.6983
rfingers 7.12502
rthumb 11.6153 295.644
lclavicle 2.02667e-015 5.91384e-015
lhumerus -26.3159 0.640165 83.8184
lradius 29.6749
lwrist 1.57148
lhand -19.8668 -15.2437
lfingers 7.12502
lthumb 6.46837 14.6376
rfemur -48.8368 -5.22738 22.2714
rtibia 52.2153
rfoot -11.8132 -3.50326
rtoes -3.00352
lfemur -21.8827 6.09045 -25.4134
ltibia 32.2782
lfoot -24.0329 -9.15462
ltoes 1.96359
269
root 0.38167 16.3474 17.2449 17.585 3.3781 1.27148
lowerback -14.1408 -1.62516 -3.42243
upperback -6.02399 -1.70692 0.379395
thorax 1.67918 -0.795462 2.0648
lowerneck -4.86822 -1.05348 -1.4145
upperneck 9.19155 -1.4149 1.25221
head 3.87941 -0.694241 0.595604
rclavicle -1.02813e-014 1.00386e-014
rhumerus -64.6181 -36.1212 -43.7457
rradius 11.6617
rwrist 30.4745
rhand -14.2634 -34.9462
rfingers 7.12502
rthumb 11.8751 295.411
lclavicle -1.02813e-014 1.00386e-014
lhumerus -25.1342 -1.18898 84.2699
lradius 31.3466
lwrist 3.33233
lhand -20.2209 -15.4077
lfingers 7.12502
lthumb 6.12651 14.4837
rfemur -49.1383 -5.28737 22.604
rtibia 48.9033
rfoot -11.6374 -4.08017
rtoes -1.21497
lfemur -20.7036 5.8707 -24.9005
ltibia 31.4215
lfoot -24.0559 -9.44987
ltoes 2.419
270
root 0.37295 16.3303 17.46 17.559 4.06351 1.27992
lowerback -14.1194 -1.78941 -3.43593
upperback -5.83309 -1.92212 0.485884
thorax 1.88556 -0.906882 2.14753
lowerneck -5.35635 -1.15551 -1.38249
upperneck 9.18143 -1.5435 1.19792
head 3.9735 -0.757418 0.563814
rclavicle -1.91709e-015 1.1573e-014
rhumerus -71.8878 -39.6838 -32.1403
rradius 10.6873
rwrist 39.5715
rhand -15.4142 -34.7318
rfingers 7.12502
rthumb 10.7653 295.564
lclavicle -1.91709e-015 1.1573e-014
lhumerus -23.5849 -2.78831 84.553
lradius 32.7179
lwrist 4.70843
lhand -20.6879 -15.5901
lfingers 7.12502
lthumb 5.67568 14.3139
rfemur -49.0605 -5.42642 22.6704
rtibia 45.4085
rfoot -11.4292 -4.74663
rtoes -3.38859
lfemur -19.3579 5.72755 -24.599
ltibia 30.5043
lfoot -24.3139 -9.63928
ltoes 0.983972
271
root 0.359069 16.3078 17.6762 17.5071 4.43137 1.45475
lowerback -13.9681 -1.89895 -3.70397
upperback -5.72042 -2.03759 0.537967
thorax 1.93974 -0.962984 2.33671
lowerneck -5.49994 -1.22126 -1.40136
upperneck 8.93984 -1.62438 1.17889
head 3.91737 -0.798392 0.555986
rclavicle 1.21563e-014 -2.2239e-014
rhumerus -77.7496 -41.1542 -23.4762
rradius 10.5008
rwrist 44.706
rhand -17.0282 -35.7561
rfingers 7.12502
rthumb 9.20813 294.465
lclavicle 1.21563e-014 -2.2239e-014
lhumerus -22.2637 -4.21645 84.7249
lradius 34.0943
lwrist 6.05629
lhand -21.0747 -15.9886
lfingers 7.12502
lthumb 5.30221 13.9251
rfemur -48.8976 -5.1856 22.3679
rtibia 41.7935
rfoot -11.2551 -5.13221
rtoes -4.3435
lfemur -17.9883 5.89977 -24.5457
ltibia 29.5985
lfoot -24.8027 -9.42709
ltoes -2.81831
